# xmcd
#
# Track frame offsets: 
#        150
#        14468
#        27926
#        40831
#        54920
#        69232
#        83292
#        97695
#        111904
#        125441
#        140076
#        155510
#        169252
#        181971
#        196015
#        207853
#
# Disc length: 2952 seconds
#
# Revision: 0
# Processed by: cddbd v1.4PL0 Copyright (c) Steve Scherf et al.
# Submitted via: ExactAudioCopy v0.90b2
#
DISCID=c60b8610
DTITLE=Eddie Lang and Joe Venuti - Stringing The Blues - Disc 2 of 2
DYEAR=1900
DGENRE=Blues
TTITLE0=It's Right Here For You
TTITLE1=You Can't Cheat A Cheater
TTITLE2=Tiger Rag
TTITLE3=A Handful Of Rifs
TTITLE4=Running Ragged
TTITLE5=Pardon Me Pretty Baby
TTITLE6=I'll Never Be The Same
TTITLE7=I've Found A New Baby
TTITLE8=Little Girl
TTITLE9=I Got Rhythm
TTITLE10=I Wanna count Sheep Till The Cows Come Home
TTITLE11=Church Street Bobbin' blues
TTITLE12=Vibraphonia
TTITLE13=Hey! Young Fella
TTITLE14=Some Of These Days
TTITLE15=Raggin' The Scale
EXTD=
EXTT0=
EXTT1=
EXTT2=
EXTT3=
EXTT4=
EXTT5=
EXTT6=
EXTT7=
EXTT8=
EXTT9=
EXTT10=
EXTT11=
EXTT12=
EXTT13=
EXTT14=
EXTT15=
PLAYORDER=
